HIERARCHY
ROOT Hips
{
	OFFSET 0.000000 0.000000 0.000000
	CHANNELS 6 Xposition Yposition Zposition Xrotation Yrotation Zrotation
	JOINT LeftUpLeg_virtual
	{
		OFFSET 0.000000 0.000000 0.000000
		CHANNELS 3 Xrotation Yrotation Zrotation
		JOINT LeftUpLeg
		{
			OFFSET 11.394100 -6.187798 -0.413800
			CHANNELS 3 Xrotation Yrotation Zrotation
			JOINT LeftLeg
			{
				OFFSET 0.430247 -32.302673 3.732800
				CHANNELS 3 Xrotation Yrotation Zrotation
				JOINT LeftFoot
				{
					OFFSET -0.430247 -48.264931 -6.423300
					CHANNELS 3 Xrotation Yrotation Zrotation
					JOINT LeftToeBase
					{
						OFFSET 4.230900 -16.068199 23.438400
						CHANNELS 3 Xrotation Yrotation Zrotation
						JOINT LeftToe_End
						{
							OFFSET 4.510700 0.695400 19.974600
							CHANNELS 3 Xrotation Yrotation Zrotation
							End Site
							{
								OFFSET 0 0 0
							}
						}
					}
				}
			}
		}
	}
	JOINT RightUpLeg_virtual
	{
		OFFSET 0.000000 0.000000 0.000000
		CHANNELS 3 Xrotation Yrotation Zrotation
		JOINT RightUpLeg
		{
			OFFSET -11.333700 -6.187798 -0.413800
			CHANNELS 3 Xrotation Yrotation Zrotation
			JOINT RightLeg
			{
				OFFSET -0.430392 -32.302628 3.733000
				CHANNELS 3 Xrotation Yrotation Zrotation
				JOINT RightFoot
				{
					OFFSET 0.430392 -48.264973 -6.423500
					CHANNELS 3 Xrotation Yrotation Zrotation
					JOINT RightToeBase
					{
						OFFSET -4.230900 -16.068199 23.438400
						CHANNELS 3 Xrotation Yrotation Zrotation
						JOINT RightToe_End
						{
							OFFSET -4.510700 0.695400 19.974600
							CHANNELS 3 Xrotation Yrotation Zrotation
							End Site
							{
								OFFSET 0 0 0
							}
						}
					}
				}
			}
		}
	}
	JOINT Spine_virtual
	{
		OFFSET 0.000000 0.000000 0.000000
		CHANNELS 3 Xrotation Yrotation Zrotation
		JOINT Spine
		{
			OFFSET -0.002400 12.777504 0.315300
			CHANNELS 3 Xrotation Yrotation Zrotation
			JOINT Spine1
			{
				OFFSET -0.002067 5.816869 0.032633
				CHANNELS 3 Xrotation Yrotation Zrotation
				JOINT Spine1_split
				{
					OFFSET -0.002067 5.816869 0.032633
					CHANNELS 3 Xrotation Yrotation Zrotation
					JOINT Spine2
					{
						OFFSET -0.002067 5.816869 0.032633
						CHANNELS 3 Xrotation Yrotation Zrotation
						JOINT Neck_virtual
						{
							OFFSET 0.000000 0.000000 0.000000
							CHANNELS 3 Xrotation Yrotation Zrotation
							JOINT Neck
							{
								OFFSET -0.003700 21.199493 -0.826900
								CHANNELS 3 Xrotation Yrotation Zrotation
								JOINT Head
								{
									OFFSET 0.000000 20.442200 4.834800
									CHANNELS 3 Xrotation Yrotation Zrotation
									JOINT HeadTop_End
									{
										OFFSET 0.000000 34.668396 4.968400
										CHANNELS 3 Xrotation Yrotation Zrotation
										End Site
										{
											OFFSET 0 0 0
										}
									}
								}
							}
						}
						JOINT LeftShoulder_virtual
						{
							OFFSET 0.000000 0.000000 0.000000
							CHANNELS 3 Xrotation Yrotation Zrotation
							JOINT LeftShoulder
							{
								OFFSET 3.288150 8.794197 -1.372250
								CHANNELS 3 Xrotation Yrotation Zrotation
								JOINT LeftShoulder_split
								{
									OFFSET 3.288150 8.794197 -1.372250
									CHANNELS 3 Xrotation Yrotation Zrotation
									JOINT LeftArm
									{
										OFFSET 11.953299 -2.279007 -0.146200
										CHANNELS 3 Xrotation Yrotation Zrotation
										JOINT LeftForeArm
										{
											OFFSET 18.448900 0.000000 0.000000
											CHANNELS 3 Xrotation Yrotation Zrotation
											JOINT LeftHand
											{
												OFFSET 29.527798 0.000000 0.000000
												CHANNELS 3 Xrotation Yrotation Zrotation
												End Site
												{
													OFFSET 0 0 0
												}
											}
										}
									}
								}
							}
						}
						JOINT RightShoulder_virtual
						{
							OFFSET 0.000000 0.000000 0.000000
							CHANNELS 3 Xrotation Yrotation Zrotation
							JOINT RightShoulder
							{
								OFFSET -3.249400 8.794197 -1.372250
								CHANNELS 3 Xrotation Yrotation Zrotation
								JOINT RightShoulder_split
								{
									OFFSET -3.249400 8.794197 -1.372250
									CHANNELS 3 Xrotation Yrotation Zrotation
									JOINT RightArm
									{
										OFFSET -11.953299 -2.279007 -0.146200
										CHANNELS 3 Xrotation Yrotation Zrotation
										JOINT RightForeArm
										{
											OFFSET -18.448900 0.000000 0.000000
											CHANNELS 3 Xrotation Yrotation Zrotation
											JOINT RightHand
											{
												OFFSET -29.527802 0.000000 0.000000
												CHANNELS 3 Xrotation Yrotation Zrotation
												End Site
												{
													OFFSET 0 0 0
												}
											}
										}
									}
								}
							}
						}
					}
				}
			}
		}
	}
}
MOTION
Frames: 7
Frame Time: 0.03333333
-2.641212 96.859474 1.278469 0.000000 0.000000 0.000000 1.379064 1.914076 -2.161229 -31.085595 6.894023 11.146432 44.821532 0.478980 0.969949 -0.374191 -3.035846 -2.272891 -21.632454 -1.086660 -1.414744 0.000000 0.000000 0.000000 3.239274 2.937088 -1.781050 -18.638289 -4.620136 3.429465 22.689467 0.659073 -2.514771 -9.722112 2.849334 1.451604 -0.059424 0.079441 1.467627 0.000000 0.000000 0.000000 0.347144 0.441819 -1.839901 6.601175 -0.543913 2.180095 2.805714 -1.495888 1.750881 0.928973 -0.469473 0.739716 0.000000 0.000000 0.000000 2.730178 -1.501557 1.393302 -2.109908 5.034090 -1.047575 -1.122717 0.503168 -0.554801 0.000000 0.000000 0.000000 2.826051 -1.769101 1.286343 1.213103 -10.076780 -14.873596 1.499619 2.719552 -2.948365 12.696791 -23.376773 -46.955976 -0.789809 -22.068430 -2.315004 0.000000 0.000000 0.000000 1.544303 -1.458403 2.511317 0.849376 2.976153 17.090745 0.700775 0.205040 -2.845065 7.462514 23.585757 47.345471 -0.365397 34.213592 1.798564 0.000000 0.000000 0.000000 
-1.199319 96.695244 2.967068 0.000000 0.000000 0.000000 1.618561 2.044181 -1.868838 -30.328652 6.285698 11.629680 42.736217 1.373844 0.586346 -1.405352 -2.453455 -1.320889 -18.677717 -0.208178 -3.264559 0.000000 0.000000 0.000000 3.544570 2.966337 -1.466346 -18.389787 -4.039395 2.586083 22.748809 0.788137 -2.506538 -9.998969 2.544444 0.996387 0.405452 -0.006259 1.503398 0.000000 0.000000 0.000000 0.711529 0.592272 -1.874349 6.553082 -0.067231 2.107204 3.052400 -1.248814 1.602874 0.711175 0.499342 0.664236 0.000000 0.000000 0.000000 2.790260 -1.266495 1.209591 -2.074035 4.468246 -0.484839 -1.538887 0.369532 -0.629898 0.000000 0.000000 0.000000 3.076173 -1.465246 1.210197 1.128421 -9.579979 -15.013669 0.733981 3.538941 -3.595736 13.135140 -21.718359 -47.271418 -0.852584 -21.274714 -2.376313 0.000000 0.000000 0.000000 1.630317 -1.227624 2.254770 0.625412 3.028498 16.760031 1.281086 0.782331 -3.184862 6.750883 24.208588 47.180075 -0.298230 37.643710 1.700262 0.000000 0.000000 0.000000 
1.054085 96.877029 5.311531 0.000000 0.000000 0.000000 1.788548 2.167552 -1.299866 -29.429608 5.607529 13.098770 38.977796 3.004795 0.153852 -1.008062 -0.891733 -2.074962 -13.450625 0.496745 -4.851740 0.000000 0.000000 0.000000 3.591304 3.277920 -0.992260 -17.113370 -3.395999 1.068528 22.700641 1.320689 -2.627502 -10.246742 2.126529 1.244810 0.168765 -0.004037 1.354029 0.000000 0.000000 0.000000 1.010345 1.030394 -1.582968 6.701578 0.964886 1.843315 3.280975 -0.279873 1.268412 0.729855 0.860372 0.689261 0.000000 0.000000 0.000000 2.891857 -0.317935 0.788201 -1.890019 3.622775 -0.184400 -2.188855 -1.135108 -0.590086 0.000000 0.000000 0.000000 3.226475 -0.463956 0.905724 0.976221 -9.509912 -15.482871 -0.159786 3.780384 -3.983978 12.466048 -18.966435 -47.756768 -0.960826 -20.872457 -2.365367 0.000000 0.000000 0.000000 1.748465 -0.262535 1.778122 0.357939 3.736845 16.433070 2.015810 0.618412 -3.286030 7.313894 24.409097 46.282482 -0.157411 43.954549 1.410165 0.000000 0.000000 0.000000 
3.798903 97.202835 7.849895 0.000000 0.000000 0.000000 1.766225 2.302483 -0.651683 -28.707842 4.695575 15.235640 34.309249 4.655277 -0.025194 1.422133 0.700747 -4.944906 -8.153885 0.863138 -5.581421 0.000000 0.000000 0.000000 3.365704 3.610204 -0.500277 -14.857893 -2.884670 -0.929485 22.306961 2.238437 -2.783658 -10.424651 1.797168 2.165572 -0.429586 0.075897 1.039461 0.000000 0.000000 0.000000 1.052224 1.474202 -1.116438 6.956558 2.390101 1.499712 3.508810 1.203887 0.818158 1.119141 0.482278 0.706109 0.000000 0.000000 0.000000 3.058195 1.190764 0.243231 -1.640467 2.624661 -0.133790 -2.987460 -3.801263 -0.454570 0.000000 0.000000 0.000000 3.336853 1.070002 0.449121 0.772034 -9.908110 -16.265365 -0.724893 3.480961 -4.203276 10.841863 -15.485051 -48.279841 -1.037107 -20.848744 -2.259054 0.000000 0.000000 0.000000 1.914543 1.263144 1.183980 0.051124 5.031532 16.123708 2.628670 -0.095799 -3.020478 8.858799 23.866380 44.803022 0.127132 51.726993 0.873017 0.000000 0.000000 0.000000 
6.698637 97.540649 10.484894 0.000000 0.000000 0.000000 1.521551 2.237172 -0.116089 -28.382853 3.941519 17.771105 29.666636 6.075268 -0.004515 5.343508 1.338459 -9.267052 -4.685550 0.947272 -5.032462 0.000000 0.000000 0.000000 2.907133 3.747086 -0.148138 -11.881355 -2.758502 -3.130934 21.360069 3.373107 -2.860989 -10.597386 1.679230 3.464933 -0.769436 0.205052 0.695223 0.000000 0.000000 0.000000 0.999200 1.840175 -0.718995 7.255104 4.002536 1.205795 3.730560 2.977033 0.330555 1.488064 -0.035314 0.777710 0.000000 0.000000 0.000000 3.285055 3.020335 -0.296685 -1.446062 1.578545 -0.292269 -3.793979 -7.166480 -0.252984 0.000000 0.000000 0.000000 3.426715 2.911696 -0.051666 0.529358 -10.694846 -17.352271 -0.763742 3.026703 -4.279667 8.625881 -11.523043 -48.801749 -0.997422 -21.082110 -2.037199 0.000000 0.000000 0.000000 2.112481 3.108930 0.597963 -0.261455 6.813047 15.862935 3.008405 -0.762173 -2.711085 10.607715 22.478322 43.020732 0.538588 59.703995 0.137948 0.000000 0.000000 0.000000 
9.471902 97.714973 13.061707 0.000000 0.000000 0.000000 1.045648 1.796956 0.121566 -28.052857 3.593350 20.086092 25.467904 7.362110 0.170287 9.397107 0.550694 -13.650218 -3.662183 0.803038 -3.339909 0.000000 0.000000 0.000000 2.332468 3.733737 -0.090995 -8.579297 -3.011525 -5.224405 19.862972 4.554375 -2.769414 -10.980025 1.826759 4.962764 -0.791879 0.296571 0.451314 0.000000 0.000000 0.000000 0.778854 1.807205 -0.565815 7.580627 5.583083 1.044835 3.928207 4.827992 -0.113496 1.775313 -0.644018 0.694632 0.000000 0.000000 0.000000 3.510509 4.938174 -0.734308 -1.377229 0.594405 -0.539230 -4.363442 -10.720714 0.015701 0.000000 0.000000 0.000000 3.533418 4.833151 -0.509954 0.260697 -11.720213 -18.571638 -0.450283 2.652882 -4.344331 6.183169 -7.476605 -49.321759 -0.833913 -21.481889 -1.704701 0.000000 0.000000 0.000000 2.342892 5.037200 0.092484 -0.560324 8.917030 15.643551 2.984761 -0.909075 -2.522281 11.790878 20.203541 41.317669 0.976314 66.848065 -0.657236 0.000000 0.000000 0.000000 
12.009620 97.638367 15.393480 0.000000 0.000000 0.000000 0.370137 1.290977 -0.023792 -27.795513 3.426425 21.848839 22.341474 8.306296 0.473687 12.287803 -1.473714 -17.408153 -3.607466 0.562054 -1.495319 0.000000 0.000000 0.000000 1.800766 3.561130 -0.365076 -5.153461 -3.497170 -7.034319 17.958640 5.744354 -2.520901 -11.637661 2.292219 6.590573 -1.118388 0.296218 0.322630 0.000000 0.000000 0.000000 0.469655 1.477431 -0.748557 7.875441 7.040036 1.064081 4.098738 6.630381 -0.473228 1.817998 -1.065812 0.612235 0.000000 0.000000 0.000000 3.712904 6.777284 -1.042060 -1.459395 -0.173678 -0.855775 -4.577762 -14.081971 0.369389 0.000000 0.000000 0.000000 3.688739 6.679620 -0.873175 -0.010227 -12.798728 -19.805780 -0.050610 2.303137 -4.595619 3.851618 -3.580233 -49.806050 -0.507234 -22.025717 -1.256775 0.000000 0.000000 0.000000 2.541252 6.869823 -0.317554 -0.871095 11.079244 15.485045 2.682015 -0.378804 -2.427732 11.923414 17.255353 39.955357 1.402161 72.684285 -1.415587 0.000000 0.000000 0.000000 
